<?xml version="1.0" standalone="no"?>
<!DOCTYPE svg PUBLIC "-//W3C//DTD SVG 1.1//EN" "http://www.w3.org/Graphics/SVG/1.1/DTD/svg11.dtd" >
<svg xmlns="http://www.w3.org/2000/svg">
<metadata>Generated by IcoMoon</metadata>
<defs>
<font id="icomoon" horiz-adv-x="1024">
<font-face units-per-em="1024" ascent="960" descent="-64" />
<missing-glyph horiz-adv-x="1024" />
<glyph unicode="&#x20;" horiz-adv-x="512" d="" />
<glyph unicode="&#xe900;" glyph-name="user" d="M721.836 473.18c95.126 95.126 111.913 251.803 27.978 369.311-55.956 72.743-145.486 117.508-240.612 117.508-162.273 0-290.973-128.699-290.973-285.377 0-72.743 33.574-145.486 83.934-201.443-184.656-83.934-307.76-268.59-307.76-470.033 0-39.169 27.978-67.148 67.148-67.148s67.148 27.978 67.148 67.148c0 207.038 173.464 380.503 380.503 380.503s380.503-173.464 380.503-380.503c0-39.169 27.978-67.148 67.148-67.148s67.148 27.978 67.148 67.148c0 207.038-117.508 386.098-302.164 470.033zM509.202 831.301c83.934 0 156.678-72.743 156.678-156.678s-72.743-156.678-156.678-156.678-156.678 67.148-156.678 151.082c0 89.53 72.743 162.273 156.678 162.273z" />
<glyph unicode="&#xe901;" glyph-name="caret-right" horiz-adv-x="628" d="M627.925 448l-512 512-115.925-115.925 396.075-396.075-396.075-396.075 115.925-115.925 512 512z" />
<glyph unicode="&#xe902;" glyph-name="reseller" d="M666.683 146.369c0 0 0 0 0 0 7.734-7.734 7.734-20.109 0-27.843l-30.937-27.843c-7.734-6.187-18.562-4.64-26.296 1.547s-9.281 20.109-1.547 27.843l30.937 27.843c7.734 6.187 20.109 6.187 27.843-1.547zM983.782 389.221h-272.242v78.888h272.242v-78.888zM932.737-23.782h-72.701v303.178c0 10.828-9.281 20.109-20.109 20.109 0 0 0 0 0 0h-655.855c-10.828 0-20.109-9.281-20.109-20.109v-303.178h-72.701v371.239h843.021l-1.547-371.239zM204.181-23.782v283.069h615.637v-283.069h-615.637zM40.218 468.109h272.242v-78.888h-272.242v78.888zM133.027 692.399h233.571l-49.498-184.073h-266.054l81.982 184.073zM307.819 732.616v40.218h408.363v-40.218h-408.363zM238.211 813.051v106.731h550.671v-106.731h-550.671zM615.637 692.399l49.498-184.073h-306.272l49.498 184.073h207.275zM352.677 389.221v78.888h318.647v-78.888h-318.647zM972.955 508.326h-266.054l-49.498 184.073h232.024l83.529-184.073zM1024 488.218c0 1.547 0 1.547 0 0 0 1.547 0 1.547 0 3.094 0 0 0 0 0 0 0 1.547 0 3.094-1.547 4.64 0 0 0 0 0 0l-102.091 224.29c-3.094 7.734-10.828 12.375-18.562 12.375h-145.402v40.218h52.592c10.828 0 20.109 9.281 20.109 20.109v146.949c0 10.828-9.281 20.109-20.109 20.109h-590.888c-10.828 0-20.109-9.281-20.109-20.109v-146.949c0-10.828 9.281-20.109 20.109-20.109h49.498v-40.218h-146.949c-7.734 0-15.468-4.64-18.562-12.375l-100.544-224.29c0 0 0 0 0 0s0-1.547-1.547-1.547c0 0 0 0 0 0s0-1.547 0-1.547c0 0 0 0 0 0s0-1.547 0-1.547c0 0 0 0 0-1.547 0 0 0 0 0 0v-119.106c0-10.828 9.281-20.109 20.109-20.109h30.937v-391.347c0-10.828 9.281-20.109 20.109-20.109h883.239c10.828 0 20.109 9.281 20.109 20.109v389.801h29.39c10.828 0 20.109 9.281 20.109 20.109 0 0 0 0 0 0v119.106c0 0 0 0 0 0v0zM372.785 206.695c-7.734 7.734-20.109 7.734-27.843 1.547l-55.686-52.592c-7.734-7.734-7.734-20.109 1.547-27.843 7.734-6.187 18.562-7.734 26.296-1.547l55.686 52.592c7.734 7.734 7.734 20.109 0 27.843zM395.988 161.837l-30.937-27.843c-7.734-7.734-6.187-21.656 1.547-27.843s18.562-7.734 26.296-1.547l30.937 27.843c9.281 7.734 9.281 20.109 3.094 27.843s-20.109 9.281-27.843 3.094c-1.547 0-1.547 0-3.094-1.547zM700.713 110.792l-57.233-52.592c-7.734-7.734-6.187-21.656 1.547-27.843s18.562-7.734 26.296-1.547l57.233 52.592c9.281 6.187 10.828 20.109 3.094 27.843-6.187 9.281-20.109 10.828-27.843 3.094-1.547 0-1.547-1.547-3.094-1.547z" />
<glyph unicode="&#xe903;" glyph-name="register" d="M21.021 960c-12.012 0-21.021-9.009-21.021-21.021 0 0 0 0 0 0v-980.457c0-12.012 9.009-21.021 21.021-21.021 0 0 0 0 0 0h776.258c12.012 0 21.021 9.009 21.021 21.021 0 0 0 0 0 0v318.311c0 6.006-1.501 10.51-6.006 15.015-7.507 7.507-21.021 9.009-28.528 0 0 0 0 0 0 0-4.504-4.504-6.006-9.009-6.006-15.015v-298.792h-735.718v939.918h545.032v-214.71c0-6.006 1.501-10.51 6.006-15.015s9.009-6.006 15.015-6.006h168.164v-192.188c0-6.006 1.501-10.51 6.006-15.015 7.507-7.507 21.021-9.009 28.528 0 0 0 0 0 0 0 4.504 4.504 6.006 9.009 6.006 15.015v214.71c0 4.504-1.501 9.009-4.504 13.513l-187.683 234.229c-4.504 4.504-10.51 7.507-16.516 7.507h-587.073zM629.114 878.921l124.622-154.651h-124.622v154.651zM897.877 635.683c-6.006 0-12.012-3.003-16.516-6.006l-337.83-339.331c-3.003-3.003-4.504-4.504-4.504-7.507l-61.56-163.66c-4.504-12.012 1.501-25.525 13.513-30.029 4.504-1.501 10.51-1.501 16.516 0l163.66 61.56c3.003 1.501 6.006 3.003 7.507 6.006l337.83 337.83c9.009 9.009 9.009 24.023 0 33.032l-102.1 102.1c-4.504 4.504-10.51 6.006-16.516 6.006v0zM897.877 581.63l70.569-70.569-306.299-306.299-70.569 70.569 306.299 306.299zM569.056 234.792l54.053-54.053-87.085-31.531 33.032 85.584zM160.657 598.147c-12.012 0-22.522-10.51-22.522-22.522s10.51-22.522 22.522-22.522c0 0 0 0 0 0h502.991c12.012 0 22.522 10.51 22.522 22.522s-10.51 22.522-22.522 22.522c0 0 0 0 0 0h-502.991zM160.657 342.897c-12.012 0-22.522-10.51-22.522-22.522s10.51-22.522 22.522-22.522c0 0 0 0 0 0h250.745c12.012 0 22.522 10.51 22.522 22.522s-10.51 22.522-22.522 22.522c0 0 0 0 0 0h-250.745zM160.657 216.774c-12.012 0-22.522-10.51-22.522-22.522s10.51-22.522 22.522-22.522h250.745c12.012 0 22.522 10.51 22.522 22.522s-10.51 22.522-22.522 22.522v0h-250.745zM160.657 470.522c-12.012 0-22.522-10.51-22.522-22.522s10.51-22.522 22.522-22.522c0 0 0 0 0 0h502.991c12.012 0 22.522 10.51 22.522 22.522s-10.51 22.522-22.522 22.522c0 0 0 0 0 0h-502.991z" />
<glyph unicode="&#xe904;" glyph-name="mail" horiz-adv-x="1574" d="M111.382 960c-61.081 0-111.382-50.302-111.382-111.382v-804.828c0-61.081 50.302-111.382 111.382-111.382h1350.961c61.081 0 111.382 50.302 111.382 111.382v804.828c0 61.081-50.302 111.382-111.382 111.382h-1350.961zM129.347 888.14h1315.032l-625.179-560.505c-17.965-14.372-46.709-14.372-64.674 0l-625.179 560.505zM71.86 841.432l456.309-409.6-456.309-377.263v786.863zM1501.867 841.432v-786.863l-456.309 377.263 456.309 409.6zM585.656 381.53l122.161-107.789c46.709-39.523 114.975-39.523 161.684 0l122.161 107.789 452.716-373.67h-1311.439l452.716 373.67z" />
<glyph unicode="&#xe905;" glyph-name="instagram" horiz-adv-x="1070" d="M743.541 960h-463.083c-39.134 0-75.006-6.522-110.879-22.828-32.611-13.045-61.962-35.873-88.051-58.701-26.089-26.089-45.656-55.439-58.701-88.051-16.306-35.873-22.828-71.745-22.828-110.879v-466.344c0-75.006 29.35-143.49 81.529-195.669 26.089-26.089 55.439-45.656 88.051-58.701 35.873-16.306 71.745-22.828 107.618-22.828h463.083c39.134 0 75.006 6.522 107.618 22.828 32.611 13.045 61.962 35.873 88.051 58.701 52.178 52.178 81.529 123.924 81.529 195.669v466.344c0 35.873-6.522 75.006-22.828 107.618-13.045 32.611-35.873 65.223-58.701 88.051-26.089 26.089-55.439 45.656-88.051 58.701-29.35 19.567-65.223 26.089-104.357 26.089zM929.427 216.459c0-101.096-84.79-185.885-185.885-185.885h-463.083c-48.917 0-97.834 19.567-130.446 55.439-35.873 32.611-55.439 81.529-55.439 130.446v463.083c0 48.917 19.567 97.834 55.439 130.446 35.873 35.873 81.529 55.439 130.446 55.439h463.083c48.917 0 97.834-19.567 130.446-55.439 35.873-35.873 55.439-81.529 55.439-130.446v-463.083zM547.873 679.541c-22.828 3.261-45.656 3.261-68.484 0-29.35-3.261-58.701-16.306-84.79-32.611s-48.917-35.873-65.223-61.962c-16.306-22.828-29.35-52.178-39.134-81.529-16.306-58.701-6.522-123.924 26.089-176.102 16.306-26.089 35.873-48.917 61.962-68.484 19.567-13.045 42.395-26.089 65.223-32.611 22.828-9.783 48.917-13.045 71.745-13.045 6.522 0 9.783 0 16.306 0s9.783 3.261 16.306 3.261c29.35 3.261 58.701 13.045 84.79 29.35s48.917 35.873 68.484 61.962c19.567 26.089 32.611 52.178 39.134 81.529s6.522 58.701 3.261 91.312c-6.522 48.917-29.35 94.573-65.223 130.446-32.611 39.134-81.529 61.962-130.446 68.484zM629.401 369.732c-13.045-13.045-26.089-26.089-42.395-35.873s-32.611-16.306-52.178-19.567c-35.873-3.261-71.745 6.522-104.357 26.089-29.35 19.567-52.178 52.178-55.439 91.312-6.522 35.873 3.261 75.006 26.089 104.357s55.439 48.917 91.312 55.439h35.873c58.701-9.783 107.618-55.439 117.401-117.401 3.261-19.567 3.261-35.873 0-55.439s-9.783-35.873-16.306-48.917v0zM733.758 734.981c-3.261-3.261-9.783-9.783-9.783-13.045-3.261-6.522-3.261-13.045-3.261-19.567s0-13.045 3.261-16.306c3.261-6.522 6.522-9.783 9.783-16.306 6.522-3.261 9.783-6.522 16.306-9.783s9.783-3.261 16.306-3.261c6.522 0 13.045 0 16.306 3.261 6.522 3.261 9.783 6.522 16.306 9.783 3.261 6.522 6.522 9.783 9.783 16.306s3.261 9.783 3.261 16.306c0 6.522 0 13.045-3.261 19.567-9.783 22.828-35.873 35.873-58.701 26.089-6.522-3.261-9.783-6.522-16.306-13.045v0z" />
<glyph unicode="&#xe906;" glyph-name="facebook" horiz-adv-x="1070" d="M743.541 960h-463.083c-39.134 0-75.006-6.522-110.879-22.828-32.611-13.045-61.962-35.873-88.051-58.701-26.089-26.089-45.656-55.439-58.701-88.051-16.306-35.873-22.828-71.745-22.828-110.879v-466.344c0-75.006 29.35-143.49 81.529-195.669 26.089-26.089 55.439-45.656 88.051-58.701 35.873-16.306 71.745-22.828 107.618-22.828h463.083c39.134 0 75.006 6.522 107.618 22.828 32.611 13.045 61.962 35.873 88.051 58.701 52.178 52.178 81.529 123.924 81.529 195.669v466.344c0 35.873-6.522 75.006-22.828 107.618-13.045 32.611-35.873 65.223-58.701 88.051-26.089 26.089-55.439 45.656-88.051 58.701-29.35 19.567-65.223 26.089-104.357 26.089zM929.427 216.459c0-101.096-84.79-185.885-185.885-185.885h-463.083c-48.917 0-97.834 19.567-130.446 55.439-35.873 32.611-55.439 81.529-55.439 130.446v463.083c0 48.917 19.567 97.834 55.439 130.446 35.873 35.873 81.529 55.439 130.446 55.439h463.083c48.917 0 97.834-19.567 130.446-55.439 35.873-35.873 55.439-81.529 55.439-130.446v-463.083zM355.465 483.873h91.312v84.79l3.261 32.611c3.261 26.089 16.306 48.917 35.873 65.223 19.567 19.567 45.656 32.611 75.006 35.873 35.873 0 68.484 0 104.357-3.261v-94.573h-71.745c-9.783 0-16.306-3.261-22.828-9.783s-9.783-13.045-9.783-22.828c0-6.522 0-13.045 0-16.306v-68.484h104.357l-13.045-104.357h-91.312v-270.675h-107.618v270.675h-91.312v101.096z" />
<glyph unicode="&#xe907;" glyph-name="cart" horiz-adv-x="1087" d="M1024 298.268h-688.356c-5.689 11.378-5.689 22.756 0 28.444 11.378 28.444 39.822 45.511 91.022 62.578l546.133 62.578c28.444 5.689 51.2 28.444 51.2 62.578v273.067c0 34.133-28.444 62.578-62.578 62.578h-739.556l-11.378 73.956c-5.689 28.444-34.133 45.511-62.578 45.511h-91.022c-34.133 0-62.578-22.756-62.578-56.889s22.756-62.578 56.889-62.578c0 0 0 0 5.689 0h39.822l113.778-557.511v-5.689c5.689-56.889 51.2-96.711 108.089-96.711h699.733c34.133 0 62.578 28.444 62.578 62.578 5.689 17.067-22.756 45.511-56.889 45.511 0 0 0 0 0 0v0zM420.978 508.757v210.489h119.467v-193.422l-119.467-17.067zM603.022 719.246h119.467v-176.356l-119.467-11.378v187.733zM904.533 559.957l-119.467-11.378v170.667h119.467v-159.289zM364.089 719.246v-221.867c-22.756-5.689-45.511-17.067-62.578-28.444l-45.511 250.311h108.089zM273.067 25.202c0-51.2-39.822-91.022-91.022-91.022s-91.022 39.822-91.022 91.022 39.822 91.022 91.022 91.022c0 0 0 0 0 0 51.2 0 91.022-39.822 91.022-91.022 0 0 0 0 0 0zM995.556 25.202c0-51.2-39.822-91.022-91.022-91.022s-91.022 39.822-91.022 91.022 39.822 91.022 91.022 91.022c51.2 0 91.022-39.822 91.022-91.022 0 0 0 0 0 0z" />
<glyph unicode="&#xe908;" glyph-name="assistance" horiz-adv-x="863" d="M315.987 500.383c0-55.762 27.036-106.455 72.66-138.561-16.898-30.416-42.244-55.762-70.97-72.66l-1.69 1.69c-30.416 27.036-76.040 23.657-101.386-6.759s-23.657-76.040 6.759-101.386c13.518-11.828 30.416-18.587 47.314-18.587h5.069c40.554 3.38 69.281 37.175 67.591 76.040 40.554 23.657 74.35 57.452 96.317 98.007 89.558-27.036 182.495 23.657 209.531 113.215 21.967 72.66-8.449 150.389-72.66 190.944 0 96.317-6.759 190.944-16.898 285.571-1.69 11.828-10.139 20.277-20.277 21.967-42.244 8.449-84.488 10.139-128.422 5.069-13.518-1.69-23.657-15.208-21.967-30.416 11.828-91.248 18.587-184.185 18.587-277.122-54.073-28.726-87.868-84.488-89.558-147.010v0zM270.363 218.191c-10.139 0-20.277 6.759-20.277 18.587 0 10.139 6.759 20.277 18.587 20.277s20.277-6.759 20.277-18.587c0-5.069-1.69-10.139-5.069-13.518-3.38-5.069-8.449-6.759-13.518-6.759zM442.719 905.927c13.518 0 25.347 0 38.865 0 8.449 0 16.898-1.69 25.347-3.38 8.449-69.281 13.518-162.218 13.518-238.257-20.277 5.069-42.244 5.069-62.521 1.69-1.69 76.040-6.759 170.667-15.208 239.947v0zM484.964 616.977c64.211 0 116.594-52.383 116.594-116.594s-52.383-114.904-116.594-114.904-116.594 52.383-116.594 116.594c0 0 0 0 0 0 0 62.521 52.383 114.904 116.594 114.904zM5.069 322.957c-6.759 15.208-6.759 32.106 0 47.314l60.832 135.182c8.449 18.587 13.518 40.554 13.518 60.832 0 150.389 84.488 287.261 219.67 353.162 13.518 6.759 28.726 0 35.485-13.518 5.069-13.518 0-27.036-11.828-33.795-118.284-55.762-190.944-175.736-190.944-304.158 0-28.726-6.759-57.452-16.898-82.799l-60.832-135.182c-1.69-3.38 0-5.069 3.38-6.759 0 0 0 0 0 0l57.452-18.587c10.139-3.38 18.587-13.518 18.587-25.347v-138.561c0-21.967 16.898-38.865 38.865-38.865 0 0 0 0 0 0h141.941c11.828 0 21.967-8.449 25.347-18.587l28.726-103.076c1.69-5.069 6.759-8.449 11.828-6.759l378.508 104.766c5.069 1.69 8.449 6.759 6.759 13.518l-55.762 196.013c-1.69 8.449 0 18.587 6.759 25.347 65.901 67.591 99.696 160.528 94.627 255.155-8.449 119.974-79.419 228.119-185.875 282.191-13.518 6.759-18.587 21.967-11.828 35.485 6.759 11.828 21.967 16.898 35.485 11.828 123.353-62.521 206.152-187.564 214.601-326.125 6.759-104.766-28.726-206.152-98.007-285.571l52.383-182.495c8.449-33.795-10.139-67.591-43.934-77.729l-378.508-108.145c-33.795-10.139-67.591 10.139-77.729 43.934l-23.657 84.488h-121.663c-50.693 0-92.937 40.554-92.937 92.937v119.974l-38.865 13.518c-16.898 3.38-28.726 15.208-35.485 30.416v0z" />
<glyph unicode="&#xe909;" glyph-name="caret-down" horiz-adv-x="1670" d="M834.954-64l834.954 834.954-189.046 189.046-645.908-645.908-645.908 645.908-189.046-189.046 834.954-834.954z" />
<glyph unicode="&#xe90a;" glyph-name="caret-left" horiz-adv-x="628" d="M0 448l512-512 115.925 115.925-396.075 396.075 396.075 396.075-115.925 115.925-512-512z" />
<glyph unicode="&#xe90b;" glyph-name="caret-up" horiz-adv-x="1670" d="M834.954 960l-834.954-834.954 189.046-189.046 645.908 645.908 645.908-645.908 189.046 189.046-834.954 834.954z" />
<glyph unicode="&#xe90c;" glyph-name="close" d="M998.559 940.919c-25.441 25.441-69.963 31.801-101.764 0 0 0 0 0 0 0l-387.975-387.975-387.975 387.975c-31.801 25.441-76.323 25.441-101.764 0s-25.441-69.963 0-101.764l387.975-387.975-387.975-387.975c-25.441-25.441-31.801-69.963 0-101.764 0 0 0 0 0 0 25.441-25.441 69.963-31.801 101.764 0 0 0 0 0 0 0l387.975 387.975 387.975-387.975c25.441-25.441 69.963-31.801 101.764 0 0 0 0 0 0 0 25.441 25.441 31.801 69.963 0 101.764 0 0 0 0 0 0l-387.975 387.975 387.975 381.615c31.801 31.801 31.801 76.323 0 108.124 0-6.36 0-6.36 0 0z" />
<glyph unicode="&#xe90d;" glyph-name="menu" horiz-adv-x="1463" d="M105.651 960c-56.889 8.127-97.524-32.508-105.651-81.27s32.508-97.524 81.27-97.524c8.127 0 16.254 0 24.381 0h1259.683c48.762-8.127 97.524 32.508 97.524 81.27 8.127 48.762-32.508 97.524-81.27 97.524-8.127 0-16.254 0-24.381 0h-1251.556zM105.651 537.397c-56.889 8.127-97.524-24.381-105.651-73.143s32.508-97.524 81.27-97.524c8.127 0 16.254 0 24.381 0h1259.683c48.762-8.127 97.524 32.508 97.524 81.27 8.127 48.762-32.508 97.524-81.27 97.524-8.127 0-16.254 0-24.381 0h-1251.556zM105.651 122.921c-48.762 8.127-97.524-32.508-97.524-81.27-8.127-48.762 32.508-97.524 81.27-97.524 8.127 0 16.254 0 24.381 0h1259.683c48.762-8.127 97.524 32.508 97.524 81.27 8.127 48.762-32.508 97.524-81.27 97.524-8.127 0-16.254 0-24.381 0h-1259.683z" />
<glyph unicode="&#xe90e;" glyph-name="events" horiz-adv-x="1064" d="M943.37 879.37h-157.228v44.346c0 20.157-16.126 36.283-36.283 36.283s-36.283-16.126-36.283-36.283c0 0 0 0 0 0v-44.346h-362.835v44.346c0 20.157-16.126 36.283-36.283 36.283s-36.283-16.126-36.283-36.283v-44.346h-157.228c-68.535 0-120.945-56.441-120.945-120.945v-701.48c0-64.504 52.409-120.945 120.945-120.945h822.425c64.504 0 120.945 52.409 120.945 120.945v701.48c0 68.535-56.441 120.945-120.945 120.945zM991.748 56.945c0-24.189-20.157-44.346-44.346-44.346 0 0 0 0 0 0h-826.457c-24.189 0-44.346 20.157-44.346 44.346v475.717h915.15v-475.717zM991.748 609.26h-919.181v149.165c0 24.189 20.157 44.346 44.346 44.346 0 0 0 0 0 0h157.228v-44.346c0-20.157 16.126-36.283 36.283-36.283s36.283 16.126 36.283 36.283v44.346h362.835v-44.346c0-20.157 16.126-36.283 36.283-36.283s36.283 16.126 36.283 36.283c0 0 0 0 0 0v44.346h157.228c24.189 0 44.346-20.157 44.346-44.346l8.063-149.165z" />
<glyph unicode="&#xe90f;" glyph-name="news" horiz-adv-x="1085" d="M852.009 755.2h-364.544c-40.96 0-69.632-32.768-69.632-69.632 0 0 0 0 0 0v-176.128c0-40.96 32.768-69.632 69.632-69.632 0 0 0 0 0 0h364.544c40.96 0 69.632 32.768 69.632 69.632 0 0 0 0 0 0v176.128c0 36.864-28.672 69.632-69.632 69.632 0 0 0 0 0 0v0zM839.721 517.632h-339.968v151.552h339.968v-151.552zM983.081 960h-630.784c-53.248 0-98.304-45.056-98.304-98.304 0 0 0 0 0 0v-278.528h-151.552c-53.248 0-98.304-45.056-98.304-98.304 0 0 0 0 0 0v-376.832c0-94.208 73.728-167.936 167.936-167.936h716.8c110.592 0 200.704 90.112 200.704 200.704v724.992c-4.096 49.152-49.152 94.208-106.496 94.208zM253.993 103.936c0-49.152-36.864-86.016-86.016-86.016s-86.016 36.864-86.016 86.016v376.832c0 8.192 8.192 16.384 16.384 16.384 0 0 0 0 0 0h151.552v-393.216zM1003.561 132.608c0-65.536-53.248-114.688-118.784-114.688h-573.44c16.384 24.576 24.576 53.248 24.576 86.016v757.76c0 8.192 8.192 16.384 16.384 16.384 0 0 0 0 0 0h630.784c8.192 0 16.384-8.192 16.384-16.384v-729.088zM430.121 366.080h335.872v-81.92h-335.872v81.92zM430.121 198.144h479.232v-81.92h-479.232v81.92z" />
<glyph unicode="&#xe910;" glyph-name="stories" horiz-adv-x="1209" d="M441.379 960c-17.655 0-30.897-8.828-39.724-22.069l-57.379-114.759h-220.69c-66.207 0-123.586-57.379-123.586-123.586v-640c0-66.207 57.379-123.586 123.586-123.586h962.207c66.207 0 123.586 57.379 123.586 123.586v640c0 66.207-57.379 123.586-123.586 123.586h-220.69l-57.379 114.759c-8.828 13.241-22.069 22.069-35.31 22.069h-331.034zM467.862 876.138h278.069l57.379-114.759c4.414-13.241 22.069-22.069 35.31-22.069h247.172c22.069 0 39.724-17.655 39.724-39.724 0 0 0 0 0 0v-640c0-22.069-17.655-39.724-39.724-39.724 0 0 0 0 0 0h-962.207c-22.069 0-39.724 17.655-39.724 39.724 0 0 0 0 0 0v640c0 22.069 17.655 39.724 39.724 39.724 0 0 0 0 0 0h247.172c17.655 0 30.897 8.828 35.31 22.069l61.793 114.759zM604.69 655.448c-145.655 0-260.414-119.172-260.414-260.414s119.172-260.414 260.414-260.414 260.414 119.172 260.414 260.414c0 141.241-114.759 260.414-260.414 260.414zM604.69 571.586c97.103 0 180.966-79.448 180.966-180.966s-79.448-180.966-180.966-180.966-180.966 79.448-180.966 180.966v0c4.414 101.517 83.862 180.966 180.966 180.966 0 0 0 0 0 0z" />
<glyph unicode="&#xe911;" glyph-name="rotate-ccw" horiz-adv-x="1128" d="M1100.108 614.054c-48.432 124.541-138.378 235.243-262.919 290.595-124.541 62.27-262.919 69.189-387.459 20.757-69.189-27.676-138.378-62.27-186.811-117.622l-159.135-138.378v186.811c0 27.676-20.757 48.432-48.432 48.432 0 0-6.919 0-6.919 0-20.757 6.919-48.432-13.838-48.432-41.514 0 0 0-6.919 0-6.919v-325.189c0-6.919 6.919-6.919 6.919-6.919s0-6.919 6.919-6.919c0 0 0 0 0 0v0c6.919-6.919 6.919-6.919 6.919-6.919l6.919-6.919h318.27c27.676 0 48.432 20.757 48.432 48.432 0 0 0 6.919 0 6.919 0 27.676-6.919 41.514-41.514 41.514h-172.973l145.297 138.378c41.514 41.514 96.865 76.108 152.216 96.865 103.784 34.595 214.486 34.595 311.351-13.838s172.973-131.459 207.568-235.243c34.595-103.784 27.676-214.486-13.838-311.351-48.432-96.865-131.459-172.973-235.243-207.568-214.486-76.108-442.811 34.595-518.919 249.081 0 0 0 0 0 6.919-13.838 13.838-41.514 27.676-69.189 20.757-27.676-13.838-41.514-41.514-27.676-69.189 76.108-207.568 269.838-339.027 484.324-345.946 55.351 0 117.622 13.838 166.054 27.676 262.919 89.946 408.216 380.541 318.27 643.459 0 13.838 0 13.838 0 13.838v0z" />
<glyph unicode="&#xe912;" glyph-name="trash" horiz-adv-x="936" d="M888.96 773.36h-184v48c0 72-56 136-136 144 0 0 0 0-8 0h-184c-72 0-136-56-144-136 0 0 0 0 0-8v-48h-184c-24 0-48-16-48-40 0 0 0 0 0-8 0-24 16-48 40-48 0 0 0 0 8 0h48v-608c0-72 56-136 136-144 0 0 0 0 8 0h464c72 0 136 56 144 136 0 0 0 0 0 8v608h48c24 0 48 16 48 40 0 0 0 0 0 8-8 24-32 48-56 48 0 0 0 0 0 0zM328.96 821.36c0 24 16 48 40 48 0 0 0 0 8 0h184c24 0 48-16 48-40 0 0 0 0 0-8v-48h-280v48zM744.96 69.36c0-24-16-48-40-48 0 0 0 0-8 0h-464c-24 0-48 16-48 40 0 0 0 0 0 8v608h560v-608zM376.96 541.36c-24 0-48-16-48-40 0 0 0 0 0-8v-280c0-24 24-48 48-48s48 24 48 48v280c0 24-24 48-48 48 0 0 0 0 0 0zM560.96 541.36c-24 0-48-16-48-40 0 0 0 0 0-8v-280c0-24 24-48 48-48s48 24 48 48v280c0 24-16 48-48 48 0 0 0 0 0 0z" />
<glyph unicode="&#xe913;" glyph-name="message-error" d="M512 960c-282.784 0-512-229.216-512-512s229.216-512 512-512c282.784 0 512 229.216 512 512v0c0 282.784-229.216 512-512 512v0zM586.944 143.584h-168.032v136.832h168.96zM586.944 342.816h-168.032v409.6h168.96z" />
<glyph unicode="&#xe914;" glyph-name="message-info" d="M512 960c-282.784 0-512-229.216-512-512s229.216-512 512-512c282.784 0 512 229.216 512 512v0c0 282.784-229.216 512-512 512v0zM586.944 143.584h-168.032v409.6h168.96zM586.944 615.552h-168.032v136.832h168.96z" />
<glyph unicode="&#xe915;" glyph-name="message-success" d="M512 960c-283.936 0-512-228.064-512-512s228.064-512 512-512 512 228.064 512 512-228.064 512-512 512zM437.536 215.264l-209.44 214.112 88.448 88.448 121.024-121.024 251.36 251.36 88.448-88.448-339.776-344.448z" />
<glyph unicode="&#xe916;" glyph-name="check" horiz-adv-x="1152" d="M178.080 574.144l-178.080-178.080 474.912-445.216 667.84 860.768-192.928 148.416-504.576-652.992-267.136 267.136z" />
<glyph unicode="&#xe917;" glyph-name="phone" horiz-adv-x="731" d="M585.312 959.522h-438.857c-81.582 0-146.286-64.703-146.286-146.286v-731.429c0-81.582 64.703-146.286 146.286-146.286h438.857c81.582 0 146.286 67.516 146.286 146.286v731.429c0 81.582-64.703 146.286-146.286 146.286zM672.52 81.807c0-47.824-39.385-87.209-87.209-87.209h-438.857c-47.824 0-87.209 39.385-87.209 87.209v731.429c0 47.824 39.385 87.209 87.209 87.209h438.857c47.824 0 87.209-39.385 87.209-87.209v-731.429zM455.905 846.994h-177.231c-16.879 0-30.945-11.253-30.945-28.132s11.253-30.945 28.132-30.945c0 0 2.813 0 2.813 0h177.231c16.879 0 30.945 11.253 30.945 28.132s-11.253 30.945-28.132 30.945c0 0-2.813 0-2.813 0v0zM408.081 78.994c-2.813-22.505-22.505-39.385-45.011-39.385-19.692 2.813-36.571 16.879-39.385 39.385 0 22.505 19.692 42.198 42.198 42.198 25.319 0 42.198-19.692 42.198-42.198z" />
<glyph unicode="&#xe918;" glyph-name="directions" d="M512 960c-281.6 0-512-230.4-512-512s230.4-512 512-512 512 230.4 512 512-230.4 512-512 512zM577.829 309.029v135.314h-215.771v-160.914h-106.057v215.771c0 29.257 18.286 51.2 47.543 54.857 3.657 0 3.657 0 7.314 0h266.971v131.657l186.514-186.514-186.514-190.171z" />
<glyph unicode="&#xe919;" glyph-name="search" d="M734.609 303.304l289.391-289.391-77.913-77.913-289.391 289.391c-178.087-139.13-434.087-105.739-573.217 77.913-139.13 178.087-100.174 434.087 77.913 573.217s439.652 100.174 573.217-77.913c111.304-144.696 111.304-350.609 0-495.304v0zM411.826 247.652c166.957 0 300.522 133.565 300.522 300.522s-133.565 300.522-300.522 300.522c-166.957 0-300.522-133.565-300.522-300.522s133.565-300.522 300.522-300.522v0z" />
<glyph unicode="&#xe91a;" glyph-name="locate" horiz-adv-x="1070" d="M537.256 335.498c-59.695 0-110.206 50.511-110.206 110.206s50.511 110.206 110.206 110.206 110.206-50.511 110.206-110.206c0-59.695-50.511-110.206-110.206-110.206zM537.256 611.013c-87.247 0-160.717-73.471-160.717-160.717s73.471-160.717 160.717-160.717 160.717 73.471 160.717 160.717v0c0 87.247-73.471 160.717-160.717 160.717zM537.256 138.045c-169.901 0-312.251 137.758-312.251 312.251s137.758 312.251 312.251 312.251 312.251-137.758 312.251-312.251-142.35-312.251-312.251-312.251c0 0 0 0 0 0zM1046.96 473.256h-151.534c-13.776 179.085-156.126 321.435-335.211 335.211v128.574c0 13.776-9.184 22.96-22.96 22.96s-22.96-9.184-22.96-22.96v-123.982c-179.085-13.776-321.435-156.126-335.211-335.211h-156.126c-13.776 0-22.96-9.184-22.96-22.96s9.184-22.96 22.96-22.96v0h151.534c13.776-179.085 156.126-321.435 335.211-335.211v-123.982c0-13.776 9.184-22.96 22.96-22.96s22.96 9.184 22.96 22.96v114.798c179.085 13.776 321.435 156.126 335.211 335.211h151.534c13.776 0 22.96 9.184 22.96 22.96 4.592 18.368-4.592 27.552-18.368 27.552z" />
<glyph unicode="&#xe91b;" glyph-name="card" d="M967.168 780.416c-21.504 21.888-51.424 35.456-84.544 35.456-0.96 0-1.888 0-2.816-0.032h-735.84c-0.48 0-1.056 0-1.632 0-66.848 0-120.992-54.176-120.992-120.992 0-0.576 0-1.152 0-1.728v0.096-490.624c-0.032-0.992-0.032-2.144-0.032-3.328 0-33.024 13.568-62.912 35.456-84.32l0.032-0.032c21.6-21.504 51.36-34.784 84.256-34.784 1.024 0 2.080 0 3.104 0.032h735.808c0.864-0.032 1.92-0.032 2.944-0.032 32.864 0 62.656 13.28 84.256 34.784v0c21.92 21.44 35.488 51.296 35.488 84.352 0 1.152-0.032 2.336-0.064 3.488v-0.16 490.592c0.032 0.8 0.032 1.76 0.032 2.72 0 33.088-13.568 63.008-35.456 84.512l-0.032 0.032zM921.216 202.56c0.032-0.608 0.064-1.312 0.064-2.016 0-10.976-4.448-20.928-11.616-28.16v0c-7.296-6.752-17.12-10.88-27.872-10.88-0.608 0-1.248 0-1.856 0.032h-735.872c-0.48-0.032-1.088-0.032-1.664-0.032-10.848 0-20.704 4.192-28.064 11.072l0.032-0.032c-7.2 7.2-11.616 17.184-11.616 28.16 0 0.704 0.032 1.408 0.064 2.112v-0.096 285.376h818.464zM921.216 570.528h-818.336v122.624c-0.032 0.416-0.032 0.896-0.032 1.376 0 10.816 4.448 20.576 11.584 27.552v0c7.328 7.008 17.312 11.296 28.288 11.296 0.448 0 0.928 0 1.376-0.032h735.904c0.48 0.032 1.088 0.032 1.664 0.032 10.848 0 20.704-4.192 28.064-11.072l-0.032 0.032c7.168-7.008 11.616-16.768 11.616-27.584 0-0.48 0-0.96-0.032-1.44v0.064z" />
<glyph unicode="&#xe91c;" glyph-name="events1" d="M921.6 861.538h-153.6v43.323c0 19.692-15.754 35.446-35.446 35.446s-35.446-15.754-35.446-35.446c0 0 0 0 0 0v-43.323h-354.462v43.323c0 19.692-15.754 35.446-35.446 35.446s-35.446-15.754-35.446-35.446v-43.323h-153.6c-66.954 0-118.154-55.138-118.154-118.154v-685.292c0-63.015 51.2-118.154 118.154-118.154h803.446c63.015 0 118.154 51.2 118.154 118.154v685.292c0 66.954-55.138 118.154-118.154 118.154zM968.862 58.092c0-23.631-19.692-43.323-43.323-43.323 0 0 0 0 0 0h-807.385c-23.631 0-43.323 19.692-43.323 43.323v464.738h894.031v-464.738zM968.862 597.662h-897.969v145.723c0 23.631 19.692 43.323 43.323 43.323 0 0 0 0 0 0h153.6v-43.323c0-19.692 15.754-35.446 35.446-35.446s35.446 15.754 35.446 35.446v43.323h354.462v-43.323c0-19.692 15.754-35.446 35.446-35.446s35.446 15.754 35.446 35.446c0 0 0 0 0 0v43.323h153.6c23.631 0 43.323-19.692 43.323-43.323l7.877-145.723z" />
<glyph unicode="&#xe91d;" glyph-name="facebook1" d="M707.491 928.97h-440.63c-37.236 0-71.37-6.206-105.503-21.721-31.030-12.412-58.958-34.133-83.782-55.855-24.824-24.824-43.442-52.752-55.855-83.782-15.515-34.133-21.721-68.267-21.721-105.503v-443.733c0-71.37 27.927-136.533 77.576-186.182 24.824-24.824 52.752-43.442 83.782-55.855 34.133-15.515 68.267-21.721 102.4-21.721h440.63c37.236 0 71.37 6.206 102.4 21.721 31.030 12.412 58.958 34.133 83.782 55.855 49.648 49.648 77.576 117.915 77.576 186.182v443.733c0 34.133-6.206 71.37-21.721 102.4-12.412 31.030-34.133 62.061-55.855 83.782-24.824 24.824-52.752 43.442-83.782 55.855-27.927 18.618-62.061 24.824-99.297 24.824zM884.364 221.479c0-96.194-80.679-176.873-176.873-176.873h-440.63c-46.545 0-93.091 18.618-124.121 52.752-34.133 31.030-52.752 77.576-52.752 124.121v440.63c0 46.545 18.618 93.091 52.752 124.121 34.133 34.133 77.576 52.752 124.121 52.752h440.63c46.545 0 93.091-18.618 124.121-52.752 34.133-34.133 52.752-77.576 52.752-124.121v-440.63zM338.23 475.927h86.885v80.679l3.103 31.030c3.103 24.824 15.515 46.545 34.133 62.061 18.618 18.618 43.442 31.030 71.37 34.133 34.133 0 65.164 0 99.297-3.103v-89.988h-68.267c-9.309 0-15.515-3.103-21.721-9.309s-9.309-12.412-9.309-21.721c0-6.206 0-12.412 0-15.515v-65.164h99.297l-12.412-99.297h-86.885v-257.552h-102.4v257.552h-86.885v96.194z" />
<glyph unicode="&#xe91e;" glyph-name="instagram1" d="M707.491 928.97h-440.63c-37.236 0-71.37-6.206-105.503-21.721-31.030-12.412-58.958-34.133-83.782-55.855-24.824-24.824-43.442-52.752-55.855-83.782-15.515-34.133-21.721-68.267-21.721-105.503v-443.733c0-71.37 27.927-136.533 77.576-186.182 24.824-24.824 52.752-43.442 83.782-55.855 34.133-15.515 68.267-21.721 102.4-21.721h440.63c37.236 0 71.37 6.206 102.4 21.721 31.030 12.412 58.958 34.133 83.782 55.855 49.648 49.648 77.576 117.915 77.576 186.182v443.733c0 34.133-6.206 71.37-21.721 102.4-12.412 31.030-34.133 62.061-55.855 83.782-24.824 24.824-52.752 43.442-83.782 55.855-27.927 18.618-62.061 24.824-99.297 24.824zM884.364 221.479c0-96.194-80.679-176.873-176.873-176.873h-440.63c-46.545 0-93.091 18.618-124.121 52.752-34.133 31.030-52.752 77.576-52.752 124.121v440.63c0 46.545 18.618 93.091 52.752 124.121 34.133 34.133 77.576 52.752 124.121 52.752h440.63c46.545 0 93.091-18.618 124.121-52.752 34.133-34.133 52.752-77.576 52.752-124.121v-440.63zM521.309 662.109c-21.721 3.103-43.442 3.103-65.164 0-27.927-3.103-55.855-15.515-80.679-31.030s-46.545-34.133-62.061-58.958c-15.515-21.721-27.927-49.648-37.236-77.576-15.515-55.855-6.206-117.915 24.824-167.564 15.515-24.824 34.133-46.545 58.958-65.164 18.618-12.412 40.339-24.824 62.061-31.030 21.721-9.309 46.545-12.412 68.267-12.412 6.206 0 9.309 0 15.515 0s9.309 3.103 15.515 3.103c27.927 3.103 55.855 12.412 80.679 27.927s46.545 34.133 65.164 58.958c18.618 24.824 31.030 49.648 37.236 77.576s6.206 55.855 3.103 86.885c-6.206 46.545-27.927 89.988-62.061 124.121-31.030 37.236-77.576 58.958-124.121 65.164zM598.885 367.321c-12.412-12.412-24.824-24.824-40.339-34.133s-31.030-15.515-49.648-18.618c-34.133-3.103-68.267 6.206-99.297 24.824-27.927 18.618-49.648 49.648-52.752 86.885-6.206 34.133 3.103 71.37 24.824 99.297s52.752 46.545 86.885 52.752h34.133c55.855-9.309 102.4-52.752 111.709-111.709 3.103-18.618 3.103-34.133 0-52.752s-9.309-34.133-15.515-46.545v0zM698.182 714.861c-3.103-3.103-9.309-9.309-9.309-12.412-3.103-6.206-3.103-12.412-3.103-18.618s0-12.412 3.103-15.515c3.103-6.206 6.206-9.309 9.309-15.515 6.206-3.103 9.309-6.206 15.515-9.309s9.309-3.103 15.515-3.103c6.206 0 12.412 0 15.515 3.103 6.206 3.103 9.309 6.206 15.515 9.309 3.103 6.206 6.206 9.309 9.309 15.515s3.103 9.309 3.103 15.515c0 6.206 0 12.412-3.103 18.618-9.309 21.721-34.133 34.133-55.855 24.824-6.206-3.103-9.309-6.206-15.515-12.412v0z" />
<glyph unicode="&#xe91f;" glyph-name="package" d="M908.8 774.4l-345.6 172.8c-38.4 19.2-76.8 19.2-115.2 0l-345.6-172.8c-44.8-19.2-70.4-64-70.4-115.2v-409.6c0-51.2 25.6-96 70.4-115.2l345.6-172.8c19.2-6.4 38.4-12.8 57.6-12.8s38.4 6.4 57.6 12.8l345.6 172.8c44.8 19.2 70.4 64 70.4 115.2v409.6c6.4 51.2-25.6 96-70.4 115.2zM492.8 870.4c6.4 6.4 12.8 6.4 19.2 6.4s12.8 0 19.2-6.4l320-160-121.6-57.6-345.6 166.4 108.8 51.2zM505.6 544l-332.8 172.8 121.6 57.6 339.2-166.4-128-64zM140.8 204.8c-12.8 6.4-19.2 25.6-19.2 38.4v403.2l345.6-172.8v-422.4l-326.4 153.6zM870.4 204.8l-320-160v428.8l345.6 172.8v-396.8c0-19.2-12.8-32-25.6-44.8z" />
<glyph unicode="&#xe920;" glyph-name="phone1" d="M734.037 959.516h-443.733c-82.489 0-147.911-65.422-147.911-147.911v-739.556c0-82.489 65.422-147.911 147.911-147.911h443.733c82.489 0 147.911 68.267 147.911 147.911v739.556c0 82.489-65.422 147.911-147.911 147.911zM822.215 72.050c0-48.356-39.822-88.178-88.178-88.178h-443.733c-48.356 0-88.178 39.822-88.178 88.178v739.556c0 48.356 39.822 88.178 88.178 88.178h443.733c48.356 0 88.178-39.822 88.178-88.178v-739.556zM603.193 845.739h-179.2c-17.067 0-31.289-11.378-31.289-28.444s11.378-31.289 28.444-31.289c0 0 2.844 0 2.844 0h179.2c17.067 0 31.289 11.378 31.289 28.444s-11.378 31.289-28.444 31.289c0 0-2.844 0-2.844 0v0zM554.837 69.205c-2.844-22.756-22.756-39.822-45.511-39.822-19.911 2.844-36.978 17.067-39.822 39.822 0 22.756 19.911 42.667 42.667 42.667 25.6 0 42.667-19.911 42.667-42.667z" />
<glyph unicode="&#xe921;" glyph-name="pin" d="M512 960c-203.232-0.256-367.904-164.928-368.16-368.128v-0.032c0-226.336 303.872-587.968 338.496-628.48l19.328-22.528c2.528-2.976 6.272-4.832 10.432-4.832v0c4.192 0 7.968 1.888 10.464 4.864l0.032 0.032 19.008 22.432c3.392 3.904 338.56 392.448 338.56 628.512-0.256 203.232-164.928 367.904-368.128 368.16h-0.032zM801.76 591.84c0-164.864-209.248-441.088-289.632-541.152-80.384 100.128-289.632 376.736-289.632 541.152 0 159.968 129.664 289.632 289.632 289.632s289.632-129.664 289.632-289.632v0zM512.32 740.704c-82.208 0-148.864-66.656-148.864-148.864s66.656-148.864 148.864-148.864v0 0c82.208 0 148.864 66.656 148.864 148.864s-66.656 148.864-148.864 148.864v0zM582.72 591.84c-0.032-38.848-31.52-70.336-70.4-70.336s-70.4 31.52-70.4 70.4 31.52 70.4 70.4 70.4v0c38.88-0.032 70.4-31.552 70.4-70.432v0z" />
<glyph unicode="&#xe922;" glyph-name="truck2" d="M997.376 468.776l-135.060 202.59c-20.776 25.977-51.955 46.754-83.106 46.754h-135.060v62.329c0 57.128-46.754 98.708-98.708 98.708h-446.733c-51.955 0-98.708-46.754-98.708-98.708v-363.628c0-57.128 46.754-98.708 98.708-98.708v-98.708c0-57.128 46.754-98.708 98.708-98.708h-10.402c20.776-72.731 93.507-119.485 161.037-98.708 46.754 10.402 83.106 46.754 93.507 93.507h176.613c15.576-72.731 88.307-114.284 161.037-93.507 46.754 10.402 83.106 46.754 93.507 93.507h36.352c57.128 0 98.708 46.754 98.708 98.708v202.59c5.201 15.576 0 36.352-10.402 51.955v0zM98.708 380.47c-20.776 0-31.178 15.576-31.178 31.178 0 0 0 0 0 0v363.628c0 20.776 15.576 31.178 31.178 31.178 0 0 0 0 0 0h451.934c20.776 0 31.178-15.576 31.178-31.178 0 0 0 0 0 0v-363.628c0-20.776-15.576-31.178-31.178-31.178 0 0 0 0 0 0h-451.934zM316.874 84.372c-36.352 0-67.53 31.178-67.53 67.53s31.178 67.53 67.53 67.53c36.352 0 67.53-31.178 67.53-67.53 0-41.553-31.178-67.53-67.53-67.53 0 0 0 0 0 0zM748.032 84.372c-36.352 0-67.53 31.178-67.53 67.53s31.178 67.53 67.53 67.53c36.352 0 67.53-31.178 67.53-67.53s-31.178-67.53-67.53-67.53v0zM945.421 214.232c0-20.776-15.576-31.178-31.178-31.178 0 0 0 0 0 0h-36.352c-15.576 72.731-88.307 114.284-161.037 93.507-46.754-10.402-83.106-46.754-93.507-93.507h-176.613c-15.576 72.731-88.307 114.284-161.037 93.507-46.754-10.402-83.106-46.754-93.507-93.507h10.402c-20.776 0-31.178 15.576-31.178 31.178 0 0 0 0 0 0v98.708h384.404c57.128 0 98.708 46.754 98.708 98.708v233.768h124.685c10.402 0 20.776-5.201 25.977-15.576l135.060-197.389c5.201-5.201 5.201-10.402 5.201-20.776v-197.389z" />
</font>
</defs>
</svg>
